<?xml version="1.0" encoding="iso-8859-1"?>
<!-- Generator: Adobe Illustrator 19.0.0, SVG Export Plug-In . SVG Version: 6.00 Build 0)  -->
<svg version="1.1" id="Layer_1" xmlns="http://www.w3.org/2000/svg" xmlns:xlink="http://www.w3.org/1999/xlink" x="0px" y="0px"
	 viewBox="0 0 388 388" style="enable-background:new 0 0 388 388;" xml:space="preserve">
<g>
	<path d="M0,0v388h388V0H0z M364,364H24V24h340V364z M364,364"/>
	<g>
		<path d="M256.424,68.037H131.577c-35.049,0-63.561,28.512-63.561,63.561v124.846c0,35.053,28.512,63.561,63.561,63.561h124.847
			c35.052,0,63.56-28.508,63.56-63.561V131.598C319.984,96.549,291.476,68.037,256.424,68.037z M292.566,256.445
			c0,19.929-16.214,36.143-36.142,36.143H131.577c-19.925,0-36.139-16.214-36.139-36.143V131.598
			c0-19.925,16.214-36.139,36.139-36.139h124.847c19.928,0,36.142,16.213,36.142,36.139V256.445z"/>
		<path d="M260.982,142.547c-8.471,0-15.359-6.888-15.359-15.354c0-8.467,6.888-15.355,15.359-15.355
			c8.466,0,15.354,6.888,15.354,15.355C276.336,135.659,269.448,142.547,260.982,142.547L260.982,142.547z"/>
		<path d="M193.998,129.127c-35.779,0-64.892,29.113-64.892,64.892c0,35.783,29.113,64.896,64.892,64.896
			c35.783,0,64.896-29.113,64.896-64.896C258.894,158.241,229.781,129.127,193.998,129.127z M193.998,231.499
			c-20.655,0-37.475-16.816-37.475-37.479c0-20.655,16.82-37.467,37.475-37.467c20.663,0,37.471,16.812,37.471,37.467
			C231.469,214.682,214.661,231.499,193.998,231.499z"/>
	</g>
</g>
<g>
</g>
<g>
</g>
<g>
</g>
<g>
</g>
<g>
</g>
<g>
</g>
<g>
</g>
<g>
</g>
<g>
</g>
<g>
</g>
<g>
</g>
<g>
</g>
<g>
</g>
<g>
</g>
<g>
</g>
</svg>
