<?xml version="1.0" encoding="iso-8859-1"?>
<!-- Generator: Adobe Illustrator 19.0.0, SVG Export Plug-In . SVG Version: 6.00 Build 0)  -->
<svg version="1.1" id="Layer_1" xmlns="http://www.w3.org/2000/svg" xmlns:xlink="http://www.w3.org/1999/xlink" x="0px" y="0px"
	 viewBox="0 0 485 485" style="enable-background:new 0 0 485 485;" xml:space="preserve">
<g>
	<rect x="89.016" y="189.906" width="67.506" height="203.096"/>
	<path d="M122.323,162.186h0.446c23.551,0,38.194-15.601,38.194-35.101c-0.442-19.928-14.643-35.087-37.752-35.087
		C100.107,91.998,85,107.157,85,127.085C85,146.585,99.678,162.186,122.323,162.186z"/>
	<path d="M261.4,393.002V279.576c0-6.086,0.464-12.119,2.24-16.459c4.887-12.149,15.978-24.693,34.641-24.693
		c24.439,0,34.195,18.629,34.195,45.92v108.657H400V276.535c0-62.379-33.307-91.398-77.744-91.398
		c-35.871,0-51.883,19.74-60.856,33.547v0.665h-0.442c0.118-0.219,0.306-0.442,0.442-0.665v-28.779h-67.537
		c0.905,19.053,0,203.096,0,203.096H261.4z"/>
	<path d="M0,0v485h485V0H0z M455,455H30V30h425V455z"/>
</g>
<g>
</g>
<g>
</g>
<g>
</g>
<g>
</g>
<g>
</g>
<g>
</g>
<g>
</g>
<g>
</g>
<g>
</g>
<g>
</g>
<g>
</g>
<g>
</g>
<g>
</g>
<g>
</g>
<g>
</g>
</svg>
